<?xml version="1.0" encoding="UTF-8"?>
<svg width="60px" height="60px" viewBox="0 0 60 60" version="1.1" xmlns="http://www.w3.org/2000/svg" xmlns:xlink="http://www.w3.org/1999/xlink">
    <!-- Generator: Sketch 55.1 (78136) - https://sketchapp.com -->
    <title>app_icon</title>
    <desc>Created with Sketch.</desc>
    <g id="app_icon" stroke="none" stroke-width="1" fill="none" fill-rule="evenodd">
        <g id="Icono/Mi-Tigo">
            <g id="Icono---Mi-Tigo">
                <path d="M13.5825,59.4975355 C6.38393372,59.5141066 0.531440671,53.6985273 0.5025,46.5 L0.5025,13.5 C0.535564353,6.30440563 6.38684886,0.493382263 13.5825,0.509964448 L46.4175,0.509964448 C53.6131511,0.493382263 59.4644356,6.30440563 59.4975,13.5 L59.4975,46.5 C59.4644407,53.6968032 53.6143683,59.5099772 46.4175,59.4975355 L13.5825,59.4975355 Z" id="Path" fill="#00377D" fill-rule="nonzero"></path>
                <path d="M46.4175,0.997479152 L46.4175,0.997479152 C53.3409895,0.985020786 58.9694438,6.57657812 59.0025,13.5 L59.0025,46.5 C58.965326,53.4204888 53.3380774,59.0074949 46.4175,58.9950209 L13.5825,58.9950209 C6.6619226,59.0074949 1.03467397,53.4204888 0.9975,46.5 L0.9975,13.5 C1.03467397,6.57951116 6.6619226,0.992505075 13.5825,1.005 L46.4175,1.005 L46.4175,0.997479152 Z M46.4175,0.0075 L13.5825,0.0075 C6.10762907,-0.0132506651 0.0289436771,6.0251563 0,13.5 L0,46.5 C0.0248144756,53.9777765 6.10471114,60.0207439 13.5825,60.0000532 L46.4175,60.0000532 C53.8952889,60.0207439 59.9751855,53.9777765 60,46.5 L60,13.5 C59.9751855,6.02222354 53.8952889,-0.0207438791 46.4175,-5.32465976e-05 L46.4175,0.0075 Z" id="Shape" fill="#FFFFFF" fill-rule="nonzero"></path>
                <path d="M16.665,30.21 C16.665,28.71 16.1175,27.87 14.9175,27.87 C13.875,27.87 13.3425,28.7325 13.3425,29.9475 C13.3425,31.4475 13.875,32.2725 15.0825,32.2725 C16.1475,32.2725 16.665,31.41 16.665,30.21 L16.665,30.21 Z M11.415,30.21 C11.415,27.96 12.69,26.2275 15.0525,26.2275 C17.2575,26.2275 18.525,27.9975 18.525,29.9775 C18.525,32.1825 17.2575,33.9375077 14.8875,33.9375077 C13.926193,33.9395202 13.0070602,33.5429469 12.3489669,32.8422126 C11.6908737,32.1414783 11.35271,31.1992889 11.415,30.24 L11.415,30.21 Z M11.775,25.4775 L11.775,25.4775 C12.572034,24.4487101 13.8199814,23.8723039 15.12,23.9325 C16.3596017,23.9271441 17.5304644,24.5014772 18.285,25.485 L18.3225,25.485 L18.3225,24.735 C18.3062338,24.4329944 18.2105068,24.1406392 18.045,23.8875 C17.2965047,23.0036728 16.1956788,22.4958105 15.0375,22.5 C13.8717016,22.4889734 12.7655284,23.0144056 12.0375,23.925 C11.8978592,24.1523795 11.8131189,24.4091682 11.79,24.675 L11.775,25.4775 Z M15.75,35.25 L15.6975,35.25 C14.5610301,36.9063814 12.6576208,37.867985 10.65,37.8 C8.73329925,37.7943241 6.94395936,36.8392605 5.8725,35.25 L5.8125,35.25 L5.8125,36.1725 C5.83680627,36.6681626 5.983693,37.1500542 6.24,37.575 C7.32586152,39.0370427 9.04644278,39.8903617 10.8675,39.87 C12.660632,39.8468096 14.3339888,38.9655084 15.3675,37.5 C15.5954222,37.0955249 15.7263575,36.6436698 15.75,36.18 L15.75,35.25 Z M9.75,30.21 L8.7375,30.21 L8.7375,30.3825 C8.81031167,30.7227424 8.8480092,31.0695597 8.85,31.4175 L8.85,32.01 C8.85,32.295 8.7825,32.565 8.0475,32.565 C6.975,32.565 5.7075,32.1375 5.7075,30.1275 C5.70682953,29.5121169 5.95824108,28.9233141 6.40318905,28.4982045 C6.84813701,28.073095 7.44778701,27.8487817 8.0625,27.8775 C8.81901864,27.8501342 9.56553046,28.0570621 10.2,28.47 L10.2,28.47 L10.5,28.47 L10.5,27.8325 C10.5,27.0825 9.795,26.25 8.25,26.25 C5.6475,26.25 3.83243856,27.9075 3.83243856,30.27 C3.82651788,31.3252832 4.25763913,32.335966 5.02347569,33.0620188 C5.78931224,33.7880716 6.82153543,34.1647154 7.875,34.1025 C9.72,34.1025 10.605,33.465 10.605,32.1375 L10.605,30.9975 C10.5475565,30.5295064 10.1464487,30.1801544 9.675,30.1875 L9.75,30.21 Z" id="GO" fill="#FFFFFF" fill-rule="nonzero"></path>
                <g id="Mi_Tigo" transform="translate(27.750000, 18.000000)" stroke="#FFFFFF" stroke-width="2.04">
                    <path d="M24.1725,25.275 C23.7664567,25.8193612 23.1266149,26.1392821 22.4475,26.1375074 L2.535,26.1375074 C1.8540819,26.1380917 1.21246443,25.8186718 0.8025,25.275 C0.407226079,24.7557085 0.276868112,24.0817301 0.45,23.4525 C1.9738329,18.0664658 6.8900514,14.3481855 12.4875,14.3481855 C18.0849486,14.3481855 23.0011671,18.0664658 24.525,23.4525 C24.6981319,24.0817301 24.5677739,24.7557085 24.1725,25.275 Z" id="Path"></path>
                    <path d="M5.67,7.26 C5.67,3.49479872 8.72229872,0.4425 12.4875,0.4425 C16.2527013,0.4425 19.305,3.49479872 19.305,7.26 C19.305,11.0252013 16.2527013,14.0775 12.4875,14.0775 C8.72401217,14.0733666 5.67413343,11.0234878 5.67,7.26 Z" id="Path"></path>
                </g>
                <path d="M11.445,59.1975 L24.315,34.4025 C25.7478916,31.6423874 25.7478916,28.3576126 24.315,25.5975 L11.445,0.8025" id="Path" stroke="#FFFFFF" stroke-width="1.33" stroke-linecap="round"></path>
            </g>
        </g>
    </g>
</svg>